Coordinates
version=1
nRows=14
nColumns=33
inDegrees=yes

Units are S.I. units (second, meters, Newtons, ...)
If the header above contains a line with 'inDegrees', this indicates whether rotational values are in degrees (yes) or radians (no).

endheader
time	pelvis_tilt	pelvis_list	pelvis_rotation	pelvis_tx	pelvis_ty	pelvis_tz	hip_flexion_r	hip_adduction_r	hip_rotation_r	knee_angle_r	knee_angle_r_beta	ankle_angle_r	subtalar_angle_r	mtp_angle_r	hip_flexion_l	hip_adduction_l	hip_rotation_l	knee_angle_l	knee_angle_l_beta	lumbar_extension	lumbar_bending	lumbar_rotation	arm_flex_r	arm_add_r	arm_rot_r	elbow_flex_r	pro_sup_r	arm_flex_l	arm_add_l	arm_rot_l	elbow_flex_l	pro_sup_l
      0.00000000	    -54.72066936	     11.56961598	      4.06637243	     -4.27786603	      0.89198768	     -0.72368687	     46.40206460	    -17.70127815	     -0.78490559	     55.36485369	      0.96629899	    -10.72056145	     -2.27622848	     -6.89338275	     72.10503076	     -7.16939007	     -3.32816674	     87.96161319	      1.53521977	    -30.24605015	     -5.00545303	     12.77000055	     44.05925491	    -40.46752370	     21.15360285	     81.12915150	     86.77440699	    -24.12600984	    -28.36486190	      7.40912831	     15.34716484	     59.56195482
      0.00416670	    -54.51642308	     14.38994866	      3.83427903	     -4.27497491	      0.89873463	     -0.72386646	     52.85169290	    -18.27029522	      2.10586776	     60.56879876	      1.05712496	    -11.78289834	     -3.71470070	     -7.12595832	     77.52692851	     -6.98209306	     -5.64395095	     92.95080888	      1.62229766	    -30.45254853	     -5.48456409	      6.90078821	     51.42656692	    -37.16131231	     32.57983196	     79.99857984	     86.98915306	    -29.40930563	    -26.98528554	     15.99318852	     15.33043661	     39.69834043
      0.00833330	    -52.44695215	     14.21283801	      2.32731720	     -4.26753606	      0.90474156	     -0.72541731	     52.78574034	    -17.17792560	      3.25724146	     62.71766518	      1.09462976	    -14.48325912	     -7.12525494	     -7.24363259	     79.22919946	     -6.80894447	     -4.84243349	     95.62526852	      1.66897578	    -31.84572704	     -5.35547806	      6.78646606	     54.80434040	    -36.90669846	     36.17643201	     81.86014216	     90.81506677	    -30.81709675	    -29.54188730	     39.61145401	     17.24543538	     14.46621939
      0.01250000	    -50.77794551	     15.05215594	      0.75409188	     -4.26024776	      0.90635432	     -0.72440105	     50.85822887	    -17.44309593	      3.42806399	     62.77860611	      1.09569338	    -12.90445889	     -6.59873214	     -7.29180467	     80.17947658	     -7.73392987	     -5.78326009	     97.66831572	      1.70463368	    -33.78963303	     -7.10125373	      7.76640317	     56.23270601	    -39.15402726	     36.24544717	     86.39554102	     91.38383490	    -31.18406335	    -32.63677998	     54.07083330	     18.16575832	      6.15159232
      0.01666670	    -49.48082559	     15.38127335	     -0.13340016	     -4.25273962	      0.91032477	     -0.72408079	     48.43843097	    -17.61411047	      3.41250928	     61.18661923	      1.06790796	    -10.67108846	     -6.13071068	     -7.31737777	     80.88974180	     -7.64548919	     -5.97405469	     98.62642543	      1.72135585	    -34.36993046	     -8.05120267	      8.32168325	     58.25093711	    -40.80843438	     37.48211564	     88.72689083	     89.49949322	    -32.05423519	    -34.36585749	     63.77126027	     17.63526587	      4.50644004
      0.02083330	    -47.93379636	     15.90820494	      0.19325342	     -4.24495138	      0.91025219	     -0.72396687	     45.50356118	    -18.82929376	      2.65491763	     59.58621994	      1.03997573	     -9.76582106	     -5.32572271	     -7.33500306	     81.10439646	     -6.76231722	     -6.35411388	     99.55983747	      1.73764697	    -35.22231421	     -8.53707284	      7.76299010	     60.63187770	    -41.89170878	     38.50625656	     90.43279194	     89.20146637	    -33.60946604	    -36.02077738	     70.11041499	     16.87584491	      3.65933439
      0.02500000	    -47.42180567	     16.46635314	      0.44965380	     -4.23772078	      0.90849711	     -0.72384837	     43.91925347	    -19.80877763	      2.31251339	     58.80869656	      1.02640538	     -8.28017877	     -5.36631679	     -7.33686854	     81.70041115	     -6.24260351	     -6.98488790	     99.95202568	      1.74449194	    -34.98833489	     -9.38204079	      7.61977276	     62.58674484	    -43.09606675	     38.92373552	     92.23210054	     88.94533292	    -35.95340712	    -37.14317371	     70.76975592	     15.59864507	      3.57571549
      0.02916670	    -46.52086793	     16.76193199	      0.66865754	     -4.23026137	      0.90811215	     -0.72397618	     42.05073540	    -20.64825865	      1.63509203	     57.94876156	      1.01139669	     -6.23661640	     -4.03341866	     -7.34539508	     82.08340914	     -5.49080886	     -7.20879500	    100.35537415	      1.75153170	    -34.96857548	     -9.72159934	      7.16912722	     65.74586880	    -43.31354039	     40.49310278	     92.64390653	     86.14956160	    -38.45229166	    -37.92218318	     72.06810130	     14.36054981	      3.39347629
      0.03333330	    -46.19159598	     17.19585067	      1.12069843	     -4.22312879	      0.90730120	     -0.72405780	     41.02582677	    -21.52327434	      1.18587003	     57.61988562	      1.00565672	     -4.68123263	     -3.01677299	     -7.35014078	     83.12782733	     -4.89443966	     -7.62583335	    100.82726707	      1.75976779	    -34.54263653	    -10.21958238	      6.65037597	     68.51355579	    -43.48889654	     41.16702841	     93.54629879	     86.55965528	    -40.96708125	    -38.64318112	     72.67898577	     12.98427438	      3.30166509
      0.03750000	    -46.16474533	     17.55291493	      1.41808230	     -4.21608178	      0.90768992	     -0.72416150	     40.24239043	    -22.16945952	      0.81064021	     57.04102628	      0.99555372	     -3.76201652	     -3.01771670	     -7.35216207	     84.20511578	     -4.43650990	     -8.05305715	    100.90300155	      1.76108960	    -33.80716960	    -10.77331233	      6.45382384	     71.09181458	    -43.75237588	     41.36804755	     94.82351627	     86.75793330	    -43.40125969	    -39.33526126	     72.78160317	     11.84565011	      3.25722325
      0.04166670	    -45.89082070	     17.76867649	      1.71689021	     -4.20901832	      0.90580018	     -0.72434058	     39.22513564	    -22.67573561	      0.40895877	     56.49784541	      0.98607342	     -2.67607137	     -2.23525592	     -7.36738684	     85.31330274	     -4.05531659	     -8.25419297	    101.42532557	      1.77020588	    -33.21281816	    -11.08766687	      5.65232616	     74.23304969	    -43.03993610	     41.97241374	     95.43690729	     87.61430604	    -46.48821288	    -39.44139141	     71.83017194	     10.79801639	      3.10390979
      0.04583330	    -45.97194091	     18.08787865	      2.04763925	     -4.20245401	      0.90493099	     -0.72429575	     38.70661109	    -23.18846777	      0.22909963	     56.18034611	      0.98053201	     -2.28243991	     -2.18506480	     -7.36906909	     86.79896784	     -3.80761500	     -8.58858000	    101.83891230	      1.77742433	    -32.40531823	    -11.59404493	      5.13426031	     77.10609010	    -42.66404062	     41.88513728	     96.70928362	     87.77766571	    -49.41245141	    -39.83730251	     71.91915058	     10.00978406	      3.09753915
      0.05000000	    -45.94574873	     18.34963731	      2.04628729	     -4.19584086	      0.90585027	     -0.72387442	     38.04670955	    -23.47672284	      0.19772360	     55.37573098	      0.96648883	     -2.13372019	     -1.70137194	     -7.37155539	     87.98578628	     -3.84801467	     -8.92595793	    101.92748495	      1.77897021	    -31.66362050	    -12.08682463	      4.54096137	     80.43580401	    -41.44339086	     42.22860825	     96.46927160	     88.15196694	    -52.33254946	    -39.81392520	     72.31628861	      9.27216229	      3.01094831
      0.05416670	    -45.74986175	     18.64475369	      2.10694922	     -4.18919462	      0.90784302	     -0.72311433	     37.24186465	    -23.74940179	      0.12574394	     54.42720127	      0.94993386	     -2.34992187	     -1.39333174	     -7.37417137	     89.07233471	     -3.78602784	     -9.21247070	    101.96863019	      1.77968833	    -31.34471546	    -12.54621778	      3.74392768	     83.99271962	    -40.04854683	     42.46425299	     96.05218370	     88.62667678	    -55.15211411	    -39.79319243	     73.37942516	      8.78953924	      2.94741413
